<svg width="185" height="208" viewBox="0 0 185 208" fill="none" xmlns="http://www.w3.org/2000/svg">
<path d="M166.6 207.18H17.7618C13.1222 207.175 8.67403 205.33 5.39328 202.049C2.11253 198.768 0.267108 194.32 0.261841 189.68V13.5266C0.265731 10.0566 1.64586 6.72987 4.09946 4.27618C6.55306 1.82249 9.87976 0.442253 13.3497 0.438232H170.803C174.329 0.442282 177.708 1.84456 180.201 4.33743C182.694 6.8303 184.096 10.2102 184.1 13.7356V189.68C184.095 194.32 182.25 198.768 178.969 202.049C175.688 205.33 171.24 207.175 166.6 207.18Z" fill="white"/>
<path d="M166.6 207.18H17.7618C13.1222 207.175 8.67403 205.33 5.39328 202.049C2.11253 198.768 0.267108 194.32 0.261841 189.68V13.5266C0.265731 10.0566 1.64586 6.72987 4.09946 4.27618C6.55306 1.82249 9.87976 0.442253 13.3497 0.438232H170.803C174.329 0.442282 177.708 1.84456 180.201 4.33743C182.694 6.8303 184.096 10.2102 184.1 13.7356V189.68C184.095 194.32 182.25 198.768 178.969 202.049C175.688 205.33 171.24 207.175 166.6 207.18ZM13.3497 2.43823C10.41 2.4416 7.59161 3.61094 5.51294 5.6897C3.43427 7.76846 2.26508 10.5869 2.26184 13.5266V189.68C2.26646 193.79 3.90098 197.73 6.80679 200.635C9.71261 203.541 13.6524 205.176 17.7618 205.18H166.6C170.71 205.176 174.65 203.541 177.555 200.635C180.461 197.73 182.096 193.79 182.1 189.68V13.7356C182.097 10.7404 180.906 7.86885 178.788 5.75092C176.67 3.63298 173.798 2.44164 170.803 2.43823H13.3497Z" fill="#9C9CA0"/>
<path d="M92.1811 113.058C109.149 113.058 122.905 99.3024 122.905 82.3342C122.905 65.366 109.149 51.6106 92.1811 51.6106C75.2129 51.6106 61.4575 65.366 61.4575 82.3342C61.4575 99.3024 75.2129 113.058 92.1811 113.058Z" fill="#B1B1B4"/>
<path d="M141.402 156.008H42.9607V155.695C42.9709 146.635 46.5745 137.949 52.9808 131.543C59.3871 125.136 68.073 121.533 77.1329 121.522H107.229C116.289 121.533 124.975 125.136 131.382 131.543C137.788 137.949 141.391 146.635 141.402 155.695V156.008Z" fill="#B1B1B4"/>
</svg>
